<svg width="32" height="32" viewBox="0 0 32 32" fill="none" xmlns="http://www.w3.org/2000/svg">
<path d="M24.5789 13.0678C25.8141 12.7136 27.1278 13.4311 27.2295 14.712C27.3126 15.7586 27.2539 16.8151 27.0523 17.8527C26.702 19.6548 25.9302 21.3483 24.7999 22.795C23.6697 24.2416 22.2131 25.4002 20.5493 26.1761C18.8855 26.9519 17.0617 27.323 15.227 27.2589C13.3923 27.1948 11.5989 26.6975 9.99323 25.8075C8.38759 24.9174 7.01539 23.6601 5.98882 22.1381C4.96225 20.6162 4.31045 18.8729 4.08671 17.0507C3.9579 16.0016 3.97309 14.9436 4.129 13.9054C4.31982 12.6347 5.68038 12.0106 6.88783 12.45V12.45C8.09529 12.8895 8.67427 14.2384 8.65406 15.5232C8.64903 15.8432 8.666 16.1641 8.70523 16.4836C8.83947 17.5769 9.23055 18.6229 9.84649 19.5361C10.4624 20.4492 11.2858 21.2037 12.2491 21.7377C13.2125 22.2717 14.2886 22.5701 15.3894 22.6085C16.4902 22.647 17.5845 22.4243 18.5828 21.9588C19.5811 21.4933 20.455 20.7982 21.1332 19.9302C21.8113 19.0622 22.2744 18.0461 22.4846 16.9648C22.546 16.6488 22.5853 16.3299 22.6026 16.0103C22.672 14.7272 23.3437 13.422 24.5789 13.0678V13.0678Z" fill="#8C66DC"/>
</svg>
