<svg width="120" height="42" viewBox="0 0 120 42" fill="none" xmlns="http://www.w3.org/2000/svg">
<path d="M11.6186 30.9047C11.1546 30.9047 10.71 30.8531 10.2848 30.75C9.85952 30.6598 9.49869 30.5181 9.2023 30.3248L10.0142 28.1405C10.3621 28.3853 10.7874 28.5078 11.29 28.5078C11.6637 28.5078 11.9601 28.3789 12.1791 28.1211C12.4111 27.8763 12.5271 27.5026 12.5271 27V16.6004H15.5426V26.9807C15.5426 28.1791 15.2011 29.1328 14.5181 29.8415C13.8351 30.5503 12.8686 30.9047 11.6186 30.9047ZM14.0348 15.1506C13.4807 15.1506 13.0297 14.9895 12.6817 14.6674C12.3338 14.3452 12.1598 13.9457 12.1598 13.4689C12.1598 12.9921 12.3338 12.5926 12.6817 12.2704C13.0297 11.9483 13.4807 11.7872 14.0348 11.7872C14.589 11.7872 15.04 11.9418 15.3879 12.2511C15.7359 12.5475 15.9099 12.9341 15.9099 13.4109C15.9099 13.9135 15.7359 14.3323 15.3879 14.6674C15.0529 14.9895 14.6019 15.1506 14.0348 15.1506ZM24.6981 27V24.9703L24.5048 24.5257V20.8917C24.5048 20.2473 24.3051 19.7448 23.9056 19.3839C23.519 19.0231 22.9198 18.8427 22.1079 18.8427C21.5538 18.8427 21.0061 18.9329 20.4648 19.1133C19.9365 19.2808 19.4854 19.5128 19.1117 19.8092L18.0292 17.7022C18.5962 17.3027 19.2792 16.9934 20.0782 16.7744C20.8772 16.5553 21.6891 16.4457 22.5138 16.4457C24.0989 16.4457 25.3296 16.8195 26.2059 17.5669C27.0822 18.3143 27.5203 19.4806 27.5203 21.0656V27H24.6981ZM21.528 27.1546C20.7161 27.1546 20.0202 27.0193 19.4403 26.7487C18.8604 26.4652 18.4158 26.085 18.1065 25.6082C17.7973 25.1314 17.6426 24.5966 17.6426 24.0038C17.6426 23.3853 17.7908 22.844 18.0872 22.3801C18.3965 21.9162 18.8798 21.5553 19.537 21.2976C20.1942 21.027 21.0512 20.8917 22.1079 20.8917H24.8721V22.6507H22.4365C21.7277 22.6507 21.238 22.7667 20.9674 22.9987C20.7097 23.2306 20.5808 23.5206 20.5808 23.8685C20.5808 24.2551 20.729 24.5644 21.0254 24.7964C21.3347 25.0154 21.7535 25.125 22.2819 25.125C22.7844 25.125 23.2355 25.009 23.635 24.777C24.0345 24.5322 24.3244 24.1778 24.5048 23.7139L24.9687 25.1056C24.7497 25.7758 24.3502 26.2848 23.7703 26.6327C23.1904 26.9807 22.4429 27.1546 21.528 27.1546ZM34.9081 27.232C33.8256 27.232 32.7882 27.0902 31.7959 26.8067C30.8036 26.5103 30.0047 26.1301 29.399 25.6662L30.4621 23.3079C31.042 23.7203 31.725 24.0618 32.5111 24.3324C33.3101 24.5902 34.1155 24.719 34.9274 24.719C35.546 24.719 36.0421 24.6611 36.4158 24.5451C36.8024 24.4162 37.0859 24.2422 37.2663 24.0232C37.4468 23.8041 37.537 23.5528 37.537 23.2693C37.537 22.9085 37.3952 22.6249 37.1117 22.4188C36.8282 22.1997 36.4545 22.0257 35.9906 21.8968C35.5266 21.7551 35.0112 21.6262 34.4441 21.5102C33.89 21.3814 33.3294 21.2267 32.7624 21.0463C32.2083 20.8659 31.6993 20.6339 31.2353 20.3504C30.7714 20.0669 30.3913 19.6932 30.0949 19.2293C29.8114 18.7654 29.6696 18.1726 29.6696 17.4509C29.6696 16.6777 29.8758 15.9754 30.2882 15.3439C30.7134 14.6996 31.3449 14.1906 32.1825 13.8168C33.033 13.4302 34.0962 13.2369 35.372 13.2369C36.2225 13.2369 37.0602 13.34 37.8849 13.5462C38.7097 13.7395 39.4378 14.0359 40.0692 14.4354L39.1027 16.813C38.4713 16.4522 37.8398 16.188 37.2084 16.0205C36.5769 15.8401 35.9583 15.7499 35.3527 15.7499C34.747 15.7499 34.2508 15.8207 33.8642 15.9625C33.4776 16.1042 33.2006 16.2911 33.033 16.5231C32.8655 16.7421 32.7818 16.9999 32.7818 17.2963C32.7818 17.6442 32.9235 17.9277 33.207 18.1468C33.4905 18.353 33.8642 18.5205 34.3282 18.6494C34.7921 18.7782 35.3011 18.9071 35.8552 19.036C36.4223 19.1648 36.9828 19.313 37.537 19.4806C38.104 19.6481 38.6195 19.8736 39.0834 20.1571C39.5473 20.4406 39.921 20.8144 40.2045 21.2783C40.5009 21.7422 40.6491 22.3285 40.6491 23.0373C40.6491 23.7976 40.4365 24.4935 40.0112 25.125C39.586 25.7564 38.9481 26.2655 38.0975 26.6521C37.2599 27.0387 36.1967 27.232 34.9081 27.232ZM42.5762 27V16.6004H45.5917V27H42.5762ZM44.084 15.1506C43.5299 15.1506 43.0788 14.9895 42.7309 14.6674C42.3829 14.3452 42.209 13.9457 42.209 13.4689C42.209 12.9921 42.3829 12.5926 42.7309 12.2704C43.0788 11.9483 43.5299 11.7872 44.084 11.7872C44.6381 11.7872 45.0892 11.9418 45.4371 12.2511C45.785 12.5475 45.959 12.9341 45.959 13.4109C45.959 13.9135 45.785 14.3323 45.4371 14.6674C45.1021 14.9895 44.651 15.1506 44.084 15.1506ZM48.3904 27V16.6004H51.2706V19.5386L50.8646 18.688C51.1739 17.9535 51.6701 17.3994 52.3531 17.0256C53.0361 16.639 53.8673 16.4457 54.8467 16.4457V19.2293C54.7178 19.2164 54.6018 19.21 54.4987 19.21C54.3956 19.1971 54.2861 19.1906 54.1701 19.1906C53.3454 19.1906 52.6752 19.429 52.1598 19.9058C51.6572 20.3698 51.4059 21.0979 51.4059 22.0901V27H48.3904ZM56.6586 27V16.6004H59.6741V27H56.6586ZM58.1663 15.1506C57.6122 15.1506 57.1611 14.9895 56.8132 14.6674C56.4653 14.3452 56.2913 13.9457 56.2913 13.4689C56.2913 12.9921 56.4653 12.5926 56.8132 12.2704C57.1611 11.9483 57.6122 11.7872 58.1663 11.7872C58.7204 11.7872 59.1715 11.9418 59.5194 12.2511C59.8674 12.5475 60.0413 12.9341 60.0413 13.4109C60.0413 13.9135 59.8674 14.3323 59.5194 14.6674C59.1844 14.9895 58.7333 15.1506 58.1663 15.1506ZM67.4985 27.1546C66.3774 27.1546 65.3787 26.9291 64.5024 26.4781C63.6261 26.0142 62.9366 25.3763 62.434 24.5644C61.9443 23.7525 61.6995 22.8311 61.6995 21.8002C61.6995 20.7564 61.9443 19.835 62.434 19.036C62.9366 18.2241 63.6261 17.5927 64.5024 17.1416C65.3787 16.6777 66.3774 16.4457 67.4985 16.4457C68.5939 16.4457 69.5475 16.6777 70.3594 17.1416C71.1713 17.5927 71.7705 18.2434 72.1571 19.094L69.8182 20.3504C69.5475 19.8607 69.206 19.4999 68.7937 19.2679C68.3942 19.036 67.956 18.92 67.4792 18.92C66.9637 18.92 66.4998 19.036 66.0874 19.2679C65.6751 19.4999 65.3465 19.8285 65.1016 20.2538C64.8696 20.679 64.7537 21.1945 64.7537 21.8002C64.7537 22.4059 64.8696 22.9213 65.1016 23.3466C65.3465 23.7719 65.6751 24.1005 66.0874 24.3324C66.4998 24.5644 66.9637 24.6804 67.4792 24.6804C67.956 24.6804 68.3942 24.5708 68.7937 24.3518C69.206 24.1198 69.5475 23.7525 69.8182 23.25L72.1571 24.5257C71.7705 25.3634 71.1713 26.0142 70.3594 26.4781C69.5475 26.9291 68.5939 27.1546 67.4985 27.1546Z" fill="white"/>
<path d="M104.558 27.1546C103.682 27.1546 102.915 26.9613 102.258 26.5747C101.6 26.1881 101.085 25.6018 100.711 24.8157C100.35 24.0167 100.17 23.0115 100.17 21.8002C100.17 20.5759 100.344 19.5708 100.692 18.7847C101.04 17.9986 101.542 17.4122 102.2 17.0256C102.857 16.639 103.643 16.4457 104.558 16.4457C105.537 16.4457 106.414 16.6713 107.187 17.1223C107.973 17.5604 108.591 18.179 109.043 18.978C109.506 19.777 109.738 20.7177 109.738 21.8002C109.738 22.8956 109.506 23.8427 109.043 24.6417C108.591 25.4407 107.973 26.0593 107.187 26.4974C106.414 26.9356 105.537 27.1546 104.558 27.1546ZM98.4109 30.75V16.6004H101.291V18.7267L101.233 21.8195L101.426 24.893V30.75H98.4109ZM104.036 24.6804C104.539 24.6804 104.983 24.5644 105.37 24.3324C105.769 24.1005 106.085 23.7719 106.317 23.3466C106.562 22.9085 106.684 22.393 106.684 21.8002C106.684 21.1945 106.562 20.679 106.317 20.2538C106.085 19.8285 105.769 19.4999 105.37 19.2679C104.983 19.036 104.539 18.92 104.036 18.92C103.533 18.92 103.082 19.036 102.683 19.2679C102.283 19.4999 101.968 19.8285 101.736 20.2538C101.504 20.679 101.388 21.1945 101.388 21.8002C101.388 22.393 101.504 22.9085 101.736 23.3466C101.968 23.7719 102.283 24.1005 102.683 24.3324C103.082 24.5644 103.533 24.6804 104.036 24.6804Z" fill="white"/>
<path d="M94.4018 17.0678C95.637 16.7136 96.9507 17.4311 97.0524 18.712C97.1355 19.7586 97.0769 20.8151 96.8752 21.8527C96.5249 23.6548 95.7531 25.3483 94.6229 26.795C93.4926 28.2416 92.0361 29.4002 90.3723 30.1761C88.7085 30.9519 86.8847 31.323 85.05 31.2589C83.2153 31.1948 81.4218 30.6975 79.8162 29.8075C78.2105 28.9174 76.8383 27.6601 75.8118 26.1381C74.7852 24.6162 74.1334 22.8729 73.9097 21.0507C73.7808 20.0016 73.796 18.9436 73.9519 17.9054C74.1428 16.6347 75.5033 16.0106 76.7108 16.45V16.45C77.9182 16.8895 78.4972 18.2384 78.477 19.5232C78.472 19.8432 78.4889 20.1641 78.5282 20.4836C78.6624 21.5769 79.0535 22.6229 79.6694 23.5361C80.2854 24.4492 81.1087 25.2037 82.0721 25.7377C83.0355 26.2717 84.1115 26.5701 85.2124 26.6085C86.3132 26.647 87.4074 26.4243 88.4057 25.9588C89.404 25.4933 90.278 24.7982 90.9561 23.9302C91.6342 23.0622 92.0973 22.0461 92.3075 20.9648C92.3689 20.6488 92.4082 20.3299 92.4255 20.0103C92.495 18.7272 93.1667 17.422 94.4018 17.0678V17.0678Z" fill="white"/>
</svg>
